<svg xmlns="http://www.w3.org/2000/svg" viewBox="0 0 64 64" role="img" aria-labelledby="title desc">
  <title id="title">Learning Engine favicon</title>
  <desc id="desc">A cute open book with a spark inside a soft lavender rounded square.</desc>
  <defs>
    <linearGradient id="bg" x1="10" y1="6" x2="54" y2="58" gradientUnits="userSpaceOnUse">
      <stop stop-color="#f6f4ff"/>
      <stop offset="1" stop-color="#e9fbf4"/>
    </linearGradient>
    <linearGradient id="page" x1="18" y1="24" x2="48" y2="46" gradientUnits="userSpaceOnUse">
      <stop stop-color="#ffffff"/>
      <stop offset="1" stop-color="#f7f7ff"/>
    </linearGradient>
  </defs>
  <rect width="64" height="64" rx="18" fill="url(#bg)"/>
  <path d="M18 25.5c0-2.2 1.8-3.8 4-3.5 4.2.5 7.4 2.4 10 5.3 2.6-2.9 5.8-4.8 10-5.3 2.2-.3 4 1.3 4 3.5v22.2c0 1.3-1.2 2.2-2.4 1.9-4.8-1.1-8.6-.1-11.6 3-3-3.1-6.8-4.1-11.6-3-1.2.3-2.4-.6-2.4-1.9V25.5Z" fill="url(#page)" stroke="#5e6ad2" stroke-width="2.5" stroke-linejoin="round"/>
  <path d="M32 27.4v24.8" stroke="#5e6ad2" stroke-width="2" stroke-linecap="round" opacity=".75"/>
  <path d="M23.5 30.5c2.4.3 4.2 1.1 5.8 2.4M23.5 36.5c2 .2 3.8.8 5.2 1.8M40.5 30.5c-2.4.3-4.2 1.1-5.8 2.4M40.5 36.5c-2 .2-3.8.8-5.2 1.8" stroke="#a1a1aa" stroke-width="1.8" stroke-linecap="round"/>
  <path d="M48.5 13.5 50 17l3.5 1.5L50 20l-1.5 3.5L47 20l-3.5-1.5L47 17l1.5-3.5Z" fill="#10b981"/>
  <circle cx="18" cy="17" r="3.2" fill="#5e6ad2" opacity=".9"/>
  <circle cx="23" cy="14" r="1.3" fill="#10b981"/>
</svg>
